<svg width="33" height="33" viewBox="0 0 33 33" fill="none" xmlns="http://www.w3.org/2000/svg">
<path fill-rule="evenodd" clip-rule="evenodd" d="M16.3772 0C7.32102 0 0 7.50059 0 16.7799C0 24.1973 4.69083 30.4759 11.1983 32.6982C12.0119 32.8652 12.3099 32.3371 12.3099 31.8929C12.3099 31.5039 12.283 30.1705 12.283 28.7811C7.72732 29.7814 6.77862 26.7809 6.77862 26.7809C6.04649 24.8362 4.96169 24.3364 4.96169 24.3364C3.4706 23.3084 5.07031 23.3084 5.07031 23.3084C6.72432 23.4196 7.59222 25.0308 7.59222 25.0308C9.05616 27.5865 11.4151 26.8644 12.3642 26.4198C12.4996 25.3363 12.9337 24.5863 13.3947 24.1696C9.76114 23.7806 5.93821 22.3361 5.93821 15.8907C5.93821 14.0571 6.58855 12.557 7.61904 11.3903C7.45645 10.9737 6.8869 9.25096 7.78196 6.94521C7.78196 6.94521 9.16477 6.50063 12.2827 8.66762C13.6176 8.30032 14.9943 8.11347 16.3772 8.11189C17.76 8.11189 19.1696 8.30657 20.4713 8.66762C23.5896 6.50063 24.9724 6.94521 24.9724 6.94521C25.8675 9.25096 25.2976 10.9737 25.135 11.3903C26.1926 12.557 26.8161 14.0571 26.8161 15.8907C26.8161 22.3361 22.9932 23.7527 19.3325 24.1696C19.9292 24.6974 20.4441 25.6974 20.4441 27.281C20.4441 29.5312 20.4173 31.3371 20.4173 31.8925C20.4173 32.3371 20.7157 32.8652 21.5289 32.6985C28.0364 30.4756 32.7272 24.1973 32.7272 16.7799C32.754 7.50059 25.4062 0 16.3772 0Z" fill="black"/>
</svg>
